<?xml version="1.0" encoding="UTF-8"?>
<!DOCTYPE svg PUBLIC "-//W3C//DTD SVG 1.1//EN" "http://www.w3.org/Graphics/SVG/1.1/DTD/svg11.dtd">
<!-- Creator: CorelDRAW X5 -->
<svg xmlns="http://www.w3.org/2000/svg" xml:space="preserve" width="2048px" height="2048px" style="shape-rendering:geometricPrecision; text-rendering:geometricPrecision; image-rendering:optimizeQuality; fill-rule:evenodd; clip-rule:evenodd"
viewBox="0 0 2048 2048"
 xmlns:xlink="http://www.w3.org/1999/xlink">
 <defs>
  <style type="text/css">
   <![CDATA[
    .fil10 {fill:none}
    .fil9 {fill:#056EAF}
    .fil8 {fill:#212121}
    .fil1 {fill:#7EB6B1}
    .fil0 {fill:#B2DFDB}
    .fil6 {fill:#0072BD;fill-rule:nonzero}
    .fil5 {fill:#007DCF;fill-rule:nonzero}
    .fil3 {fill:#0080CF;fill-rule:nonzero}
    .fil2 {fill:#0091EA;fill-rule:nonzero}
    .fil7 {fill:#026CB2;fill-rule:nonzero}
    .fil4 {fill:#0277BD;fill-rule:nonzero}
   ]]>
  </style>
 </defs>
 <g id="Layer_x0020_1">
  <metadata id="CorelCorpID_0Corel-Layer"/>
  <g id="_359468080">
   <polygon class="fil0" points="400,256 1552,256 1584,256 1584,288 1584,1760 1584,1792 1552,1792 400,1792 368,1792 368,1760 368,288 368,256 "/>
   <polygon class="fil1" points="592,1440 1360,1440 1360,1504 592,1504 "/>
   <polygon class="fil1" points="592,1248 1360,1248 1360,1312 592,1312 "/>
   <polygon class="fil1" points="592,1056 1360,1056 1360,1120 592,1120 "/>
   <polygon class="fil1" points="592,864 1360,864 1360,928 592,928 "/>
   <polygon class="fil1" points="592,672 1360,672 1360,736 592,736 "/>
   <polygon class="fil1" points="592,480 1360,480 1360,544 592,544 "/>
   <g>
    <g>
     <polygon class="fil2" points="1680,902 1680,1544 1488,1544 1488,902 "/>
     <polygon class="fil3" points="1680,1542 1680,1542 1677,1555 1612,1705 1584,1774 1554,1705 1491,1555 1488,1542 1488,1542 "/>
     <polygon class="fil4" points="1520,646 1648,646 1680,646 1680,678 1680,902 1488,902 1488,678 1488,646 "/>
    </g>
    <g>
     <polygon class="fil5" points="1680,902 1680,1544 1584,1544 1584,902 "/>
     <polygon class="fil6" points="1680,1542 1680,1542 1677,1555 1612,1705 1584,1774 1584,1774 1584,1542 "/>
     <polygon class="fil7" points="1584,646 1648,646 1680,646 1680,678 1680,902 1584,902 "/>
    </g>
    <path class="fil8" d="M1574 1750l21 0 0 31c0,6 -5,10 -10,10l0 0c-6,0 -10,-5 -10,-10l0 -31z"/>
    <rect class="fil9" x="1571" y="1030" width="25" height="384"/>
   </g>
  </g>
  <rect class="fil10" width="2048" height="2048"/>
 </g>
</svg>
